HIERARCHY
ROOT Hips
{
  OFFSET 0 0 0
  CHANNELS 6 Xposition Yposition Zposition Zrotation Yrotation Xrotation
  JOINT LeftThigh
  {
    OFFSET 8.409438 0 -5.917753
    CHANNELS 3 Zrotation Yrotation Xrotation
    JOINT LeftLeg
    {
      OFFSET 0 0 -42.358652
      CHANNELS 3 Zrotation Yrotation Xrotation
      JOINT LeftFoot
      {
        OFFSET 0 0 -39.357303
        CHANNELS 3 Zrotation Yrotation Xrotation
      }
    }
  }
  JOINT RightThigh
  {
    OFFSET -8.409438 0 -5.917753
    CHANNELS 3 Zrotation Yrotation Xrotation
    JOINT RightLeg
    {
      OFFSET 0 0 -42.358652
      CHANNELS 3 Zrotation Yrotation Xrotation
      JOINT RightFoot
      {
        OFFSET 0 0 -39.357303
        CHANNELS 3 Zrotation Yrotation Xrotation
      }
    }
  }
  JOINT SpineLow
  {
    OFFSET 0 0 4.719101
    CHANNELS 3 Zrotation Yrotation Xrotation
    JOINT SpineMid
    {
      OFFSET 0 0 12.899191
      CHANNELS 3 Zrotation Yrotation Xrotation
      JOINT Chest
      {
        OFFSET 0 0 12.899191
        CHANNELS 3 Zrotation Yrotation Xrotation
        JOINT LeftShoulder
        {
          OFFSET 7.550562 1.41573 9.438202
          CHANNELS 3 Zrotation Yrotation Xrotation
          JOINT LeftArm
          {
            OFFSET 9.155056 0 4.247191
            CHANNELS 3 Zrotation Yrotation Xrotation
            JOINT LeftForearm
            {
              OFFSET 0 0 25.771955
              CHANNELS 3 Zrotation Yrotation Xrotation
              JOINT LeftHand
              {
                OFFSET 0 0 25.197169
                CHANNELS 3 Zrotation Yrotation Xrotation
              }
            }
          }
        }
        JOINT RightShoulder
        {
          OFFSET -7.550562 1.41573 9.438202
          CHANNELS 3 Zrotation Yrotation Xrotation
          JOINT RightArm
          {
            OFFSET -9.155056 0 4.247191
            CHANNELS 3 Zrotation Yrotation Xrotation
            JOINT RightForearm
            {
              OFFSET 0 0 -25.771955
              CHANNELS 3 Zrotation Yrotation Xrotation
              JOINT RightHand
              {
                OFFSET 0 0 -25.197169
                CHANNELS 3 Zrotation Yrotation Xrotation
              }
            }
          }
        }
        JOINT Neck
        {
          OFFSET 0 0 15.101124
          CHANNELS 3 Zrotation Yrotation Xrotation
          JOINT Head
          {
            OFFSET 0 0 11.325843
            CHANNELS 3 Zrotation Yrotation Xrotation
            End Site
            {
              OFFSET 0 0 14.157303
            }
          }
        }
      }
    }
  }
}
MOTION
Frames: 5
Frame Time: 0.0
0.0  93.25843  0.0  -6.296675  17.420426  -88.67819  -7.941793  -24.237016  -28.968296  2.523348  1.900615  38.598925  6.950651  1.710156  7.272877  -35.616094  -4.826359  -20.812043  -17.991985  25.182426  32.240873  20.55039  10.611044  -0.824159  5.425355  0.004957  -0.817774  14.827581  0.196254  -2.221294  14.827581  0.196254  -2.221293  16.671706  20.406955  11.5677  -178.498825  22.980668  -178.280028  -10.734791  35.555289  100.703047  74.025164  -57.367398  -18.244828  13.68793  3.112506  17.156686  175.967357  49.615859  152.718251  -33.643056  -0.164148  -124.093019  97.66117  33.767721  8.400154  -30.550182  -0.372324  3.992124  -22.911326  -0.480551  2.984326  
0.0  93.25843  0.0  -6.284366  16.002843  -88.838564  -6.991465  -24.113115  -28.336857  2.591747  1.867157  38.361094  6.952421  1.783391  7.159064  -34.882639  -4.836057  -20.909158  -17.752375  25.09169  32.233033  20.606188  10.544832  -0.744235  5.450947  -0.027342  -0.782142  14.898719  0.101348  -2.131587  14.89872  0.101348  -2.131587  16.548529  20.538087  11.473294  -178.520605  23.082366  -178.325196  -10.561094  34.928473  100.891985  75.391657  -55.954067  -19.682356  13.414441  3.071308  17.218527  175.803385  50.405768  152.439245  -34.006643  -0.409736  -123.857628  96.629242  34.060397  8.495539  -30.099178  -0.433154  3.75599  -22.572663  -0.511614  2.803716  
0.0  93.25843  0.0  -6.258094  14.493745  -88.981619  -5.858003  -23.916743  -27.560187  2.519366  1.896084  37.874913  7.305852  1.867397  7.300259  -34.116337  -4.804247  -20.949974  -17.202858  24.795875  32.235489  20.990265  10.640485  -0.630057  5.428707  -0.067619  -0.735346  14.839305  -0.019278  -2.0135  14.839305  -0.019278  -2.0135  16.633629  20.707663  11.317027  -178.444727  23.143275  -178.307988  -10.282763  34.096794  101.143274  76.786621  -54.17605  -21.161134  13.358972  3.040407  17.213303  175.662184  51.562451  152.118806  -34.516237  -0.565565  -123.508299  95.319157  34.356578  8.651069  -29.474212  -0.475968  3.445744  -22.103713  -0.524856  2.568419  
0.0  93.25843  0.0  -6.215502  12.865424  -89.088112  -4.913548  -23.743356  -26.735781  2.56805  1.872378  37.252197  7.51043  1.80983  7.237844  -33.31149  -4.759537  -20.955179  -16.751531  24.390678  32.06011  21.077395  10.504097  -0.530566  5.383707  -0.111847  -0.699065  14.717667  -0.148892  -1.924774  14.717667  -0.148892  -1.924773  16.871831  20.8669  11.201487  -178.367679  23.193509  -178.259781  -9.965543  33.022631  101.476877  77.980538  -51.959162  -22.406833  13.401891  2.995493  17.249258  175.409592  53.08476  151.626063  -35.23442  -0.578878  -123.058673  93.797536  34.634882  8.805563  -28.752628  -0.487648  3.1552  -21.562532  -0.515746  2.349604  
0.0  93.25843  0.0  -6.134431  11.174353  -89.160621  -4.207466  -23.632302  -25.79879  2.937219  1.720921  36.588135  7.62807  1.734555  7.147435  -32.475619  -4.682174  -20.937476  -16.213278  23.877697  31.797137  21.620841  10.458535  -0.344492  5.339063  -0.142969  -0.677118  14.596544  -0.239611  -1.871946  14.596545  -0.239611  -1.871946  17.067051  20.94806  11.117791  -178.319647  23.240146  -178.182774  -9.630692  31.652094  101.835213  78.731435  -49.34449  -23.177676  13.395245  2.851048  17.248791  174.758172  54.952715  150.713665  -36.144692  -0.429951  -122.555631  92.119916  34.848841  8.938861  -28.038202  -0.502149  2.937724  -21.026702  -0.512853  2.185688  
